<svg id="qa-logo" class="svg svg--logo even" xmlns="http://www.w3.org/2000/svg" viewBox="0 10 694 105"><g class="svg__text svg__text--smartbox"><path d="M370.2 16.8C370.2 4 387.7 5 387.7 5v28.3h21.4s1.3 14.1-13.5 14.1h-7.9v45.9c0 2.2.2 4 .6 5.3.4 1.3 1.1 2.3 1.9 3 .9.7 1.9 1.1 3.1 1.3 1.2.2 2.6.3 4.1.3h17.2S416.5 117 403 117h-11c-7.6 0-13.1-1.7-16.6-5.1-3.5-3.4-5.2-8.5-5.2-15.3V16.8zM557.7 103.5c7.3 0 12.8-1.8 16.4-5.5 3.7-3.7 5.5-8.9 5.5-15.5V67c0-7-2-12.2-5.9-15.6-3.9-3.4-9.3-5.2-16.1-5.2-7.1 0-12.6 1.7-16.4 5-3.8 3.3-5.8 8.5-5.8 15.4v16.1c0 7.3 2 12.6 6.1 15.8 4 3.4 9.4 5 16.2 5m0 13.5c-5.9 0-11.3-.7-16.2-2.1-4.9-1.4-9.1-3.5-12.6-6.3s-6.2-6.4-8.1-10.6c-1.9-4.2-2.9-9.2-2.9-14.8V66.8c0-11 3.4-19.4 10-25.2 6.7-5.8 16.4-8.7 29.2-8.7 13.4 0 23.4 2.9 29.9 8.7 6.5 5.8 9.8 14.2 9.8 25.2v16.4c0 11-3.5 19.4-10.5 25.2-7 5.7-16.5 8.6-28.6 8.6M485.5 82.4c0 6.7-1.8 11.8-5.5 15.5-3.6 3.7-9.1 5.5-16.4 5.5-6.8 0-12.2-1.6-16.2-4.9-3.3-2.7-5.3-6.7-5.9-12V62.9c.6-5.1 2.5-9 5.6-11.7 3.9-3.4 9.3-5 16.4-5 6.8 0 12.2 1.7 16.1 5.1 3.9 3.4 5.9 8.7 5.9 15.6v15.5zm7.6-40.9c-6.5-5.8-16.5-8.7-30-8.7-8.6 0-16.5 1.3-21.6 5.5V5S424 4 424 16.7v66.4c0 5.7 1 10.6 2.9 14.8 2 4.3 4.7 7.8 8.1 10.6 3.5 2.8 7.7 4.9 12.6 6.3 4.9 1.3 10.2 2 16.1 2 12.1 0 21.7-2.9 28.7-8.6 7-5.8 10.5-14.2 10.5-25.2V66.8c0-11.1-3.3-19.5-9.8-25.3M656.1 74.4L688.2 34s-17.6-4.7-24.9 4.4c-5.6 7.1-17.9 22.5-17.9 22.5l-.2.2-.2-.2s-12.3-15.4-17.9-22.5c-7.2-9.2-24.9-4.4-24.9-4.4l32.2 40.4.2.3-32.4 42s17.1 4.2 25.4-6.1c8.3-10.1 16.3-21.2 17.5-22.7 1.2 1.5 9.2 12.6 17.5 22.7 8.3 10.2 25.4 6.1 25.4 6.1l-32.4-42 .5-.3zM77.2 83c-1.2-3-3.4-5.6-6.1-7.7-.2-.1-.4-.3-.6-.4-10-6.9-33.2-10.6-41.2-14-9.8-4.1-8.4-11.1 2-13.8 14.4-3.8 41.6 3.6 41.6 3.6s5.4-12.2-6.2-15.1c-8.8-2.2-45.8-8-57.3 8C-.1 57 6.2 70.4 24.3 75.8c2.9 1 7.3 1.8 13 3.2 6.4 1.6 24.8 4.2 23.7 13.6-.9 7.6-8.1 9.2-19.2 9.9-2.1.2-4.6.2-7.7.2-15-.4-25.7-6.3-27.3-7.2-.7 1.8-3.2 12.5 5.6 17 8.9 4.6 27.5 5.9 41.8 3.1 4.9-.7 10.9-3.5 14.4-6.1.8-.6 1.5-1.2 2.2-1.8 7.1-6.4 9.5-16 6.4-24.7M348.2 32.7s-2.6-.1-4.6-.1c-21.9 0-35 11.5-35 29v54.8h18.2V63.5c0-6.4-1.1-16.1 18.7-16.1h15.4s.9-13.9-12.7-14.7M197.3 57.5c0-12.7-7.1-19.4-19.8-22.5-3.1-.7-6.8-1.5-11.1-1.5-2.5 0-4.8.2-6.8.6-6.4 1.1-11.6 2.9-15.5 5.6-3-2-6.7-3.5-11-4.6-3.1-.7-6.9-1.5-11.1-1.5-2.5 0-4.8.2-6.8.6C99.7 36.7 91 43.4 91 57.5v58.7s17.5 3 17.5-9.4V57.5c0-.5 0-1 .1-1.6 0-4.8 6-7.6 13.4-7.6 7.5 0 13.4 2.8 13.4 7.6v.1c.1.5.1 1 .1 1.5v58.7s17.5 3 17.5-9.4V57.5c0-.5 0-1 .1-1.6 0-4.8 6-7.6 13.4-7.6s13.4 2.8 13.4 7.6v.1c.1.5.1 1 .1 1.5v58.7s17.5 3 17.5-9.4c-.2-4.3-.2-49.3-.2-49.3M273.3 81.6c0 6.7-1.8 11.8-5.5 15.5-3.6 3.7-9.1 5.5-16.4 5.5-6.8 0-12.2-1.6-16.3-4.9-4.1-3.3-6.1-8.6-6.1-15.8V67.6c0-6.9 1.9-12.1 5.8-15.4 3.9-3.3 9.3-5 16.4-5 6.8 0 12.2 1.7 16.1 5.1 3.9 3.5 5.9 8.6 5.9 15.6v13.7zm17.3-36.3c0-14.3-17.3-11.7-17.3-11.7l.1 5.2c-5.6-3.1-12.7-5.2-22.5-4.9-12.7.3-22.4 2.9-29.2 8.7-6.7 5.8-10 14.2-10 25.2v14.6c0 5.7.9 10.6 2.9 14.8 1.9 4.2 4.6 7.8 8.1 10.6s7.7 4.9 12.6 6.3c4.9 1.4 10.3 2 16.2 2 12.3 0 18.2-2.5 23.7-6.5 4 9.5 15.5 6.7 15.5 6.7v-71z"></path></g><g class="svg__bars"><path class="svg__bars__bar svg__bars__bar--bar0" d="M6 134.5h97.5v13.1H6z"></path><path class="svg__bars__bar svg__bars__bar--bar1" d="M103.5 134.5H201v13.1h-97.5z"></path><path class="svg__bars__bar svg__bars__bar--bar2" d="M200.9 134.5h97.5v13.1h-97.5z"></path><path class="svg__bars__bar svg__bars__bar--bar3" d="M298.4 134.5h97.5v13.1h-97.5z"></path><path class="svg__bars__bar svg__bars__bar--bar4" d="M395.9 134.5h97.5v13.1h-97.5z"></path><path class="svg__bars__bar svg__bars__bar--bar5" d="M493.3 134.5h97.5v13.1h-97.5z"></path><path class="svg__bars__bar svg__bars__bar--bar6" d="M590.8 134.5h97.5v13.1h-97.5z"></path></g></svg>
