<?xml version="1.0" encoding="UTF-8"?>
<svg width="344px" height="87px" viewBox="0 0 344 87" version="1.1" xmlns="http://www.w3.org/2000/svg" xmlns:xlink="http://www.w3.org/1999/xlink">
    <!-- Generator: Sketch 63.1 (92452) - https://sketch.com -->
    <title>logo winner / color / vaimo@3x</title>
    <desc>Created with Sketch.</desc>
    <defs>
        <linearGradient x1="77.8848947%" y1="36.5308141%" x2="100%" y2="94.1529172%" id="linearGradient-1">
            <stop stop-color="#FFFFFF" stop-opacity="0" offset="0%"></stop>
            <stop stop-color="#FDD43D" offset="100%"></stop>
        </linearGradient>
        <path d="M5.482,0.28 C5.482,0.28 -2.518,0.28 2.112,6.79 L17.502,28.56 C19.737,31.456 22.838,33.55 26.344,34.566 C25.768,34.342 25.214,34.009 24.822,33.531 C24.813,33.52 24.804,33.508 24.796,33.497 C24.733,33.418 24.675,33.337 24.622,33.25 C24.604,33.22 24.588,33.19 24.572,33.16 C24.53,33.085 24.492,33.009 24.459,32.929 C24.442,32.888 24.427,32.846 24.412,32.805 C24.385,32.726 24.362,32.646 24.342,32.562 C24.331,32.516 24.321,32.47 24.313,32.421 C24.297,32.333 24.287,32.24 24.281,32.146 C24.277,32.099 24.275,32.052 24.274,32.005 C24.271,31.897 24.277,31.786 24.287,31.671 C24.291,31.631 24.292,31.591 24.298,31.55 C24.314,31.416 24.341,31.276 24.374,31.133 C24.381,31.105 24.385,31.078 24.393,31.05 C24.435,30.883 24.49,30.709 24.556,30.529 C24.56,30.52 24.562,30.51 24.566,30.5 C24.788,29.908 25.138,29.243 25.661,28.49 L35.512,14.19 L30.322,6.81 C30.322,6.81 25.692,0.28 17.712,0.28 L5.482,0.28 Z" id="path-2"></path>
        <linearGradient x1="39.2149948%" y1="76.8219296%" x2="9.20147135%" y2="-28.3234297%" id="linearGradient-3">
            <stop stop-color="#FFFFFF" stop-opacity="0" offset="0%"></stop>
            <stop stop-color="#FDD43D" offset="100%"></stop>
        </linearGradient>
        <path d="M11.757,4.238 C11.578,4.958 11.179,5.809 10.482,6.82 L10.482,6.82 L0.632,21.12 L5.842,28.5 C5.842,28.5 10.452,35.02 18.432,35.02 L18.432,35.02 L30.661,35.02 C30.661,35.02 38.661,35.02 34.031,28.511 L34.031,28.511 L18.641,6.75 C16.326,3.751 13.085,1.601 9.422,0.63 L9.422,0.63 C10.855,1.08 12.298,2.07 11.757,4.238" id="path-4"></path>
        <path d="M17.062,0.28 L5.901,0.28 L5.891,0.28 C4.495,0.285 3.106,0.496 1.772,0.91 L1.772,0.91 C1.841,0.882 1.914,0.86 1.985,0.834 L1.985,0.834 C1.914,0.855 1.842,0.869 1.772,0.891 L1.772,0.891 C0.861,1.305 0.087,1.996 0.025,3.146 L0.025,3.146 C-0.011,4.04 0.376,5.205 1.452,6.73 L1.452,6.73 L5.972,13.142 L11.632,21.12 L21.482,6.82 C22.176,5.814 22.577,4.96 22.757,4.238 L22.757,4.238 C23.291,2.087 21.845,1.117 20.422,0.63 L20.422,0.63 C20.205,0.579 19.984,0.549 19.766,0.51 L19.766,0.51 C19.984,0.559 20.206,0.595 20.422,0.66 L20.422,0.66 C20.027,0.562 19.626,0.488 19.226,0.426 L19.226,0.426 C19.165,0.418 19.107,0.407 19.047,0.399 L19.047,0.399 C18.635,0.342 18.219,0.299 17.801,0.28 L17.801,0.28 L17.062,0.28 Z" id="path-5"></path>
        <linearGradient x1="49.9999555%" y1="91.3030341%" x2="49.9999555%" y2="-18.3306607%" id="linearGradient-7">
            <stop stop-color="#F79921" offset="0%"></stop>
            <stop stop-color="#FFE175" offset="100%"></stop>
        </linearGradient>
        <linearGradient x1="33.7571514%" y1="38.2773731%" x2="20.6901395%" y2="100%" id="linearGradient-8">
            <stop stop-color="#FFFFFF" stop-opacity="0" offset="0%"></stop>
            <stop stop-color="#FDD43D" offset="100%"></stop>
        </linearGradient>
        <path d="M22.161,0.36 C14.161,0.36 9.661,6.92 9.661,6.92 L9.661,6.92 L0.512,20.19 L10.692,34.58 C10.847,34.8 10.989,35.014 11.116,35.22 L11.116,35.22 C11.307,35.529 11.469,35.821 11.602,36.098 L11.602,36.098 C12,36.929 12.149,37.621 12.118,38.198 L12.118,38.198 C12.058,39.352 11.283,40.044 10.371,40.461 L10.371,40.461 C13.715,39.373 16.639,37.277 18.741,34.46 L18.741,34.46 L37.741,6.89 C42.321,0.37 34.321,0.36 34.321,0.36 L34.321,0.36 L22.161,0.36 Z" id="path-9"></path>
        <path d="M1.661,14.49 C1.142,15.243 0.788,15.909 0.566,16.5 L0.566,16.5 C0.562,16.51 0.56,16.52 0.556,16.529 L0.556,16.529 C0.49,16.709 0.436,16.883 0.393,17.05 L0.393,17.05 C0.385,17.078 0.381,17.105 0.374,17.133 L0.374,17.133 C0.341,17.277 0.315,17.416 0.298,17.55 L0.298,17.55 C0.293,17.59 0.291,17.631 0.287,17.671 L0.287,17.671 C0.277,17.786 0.272,17.897 0.274,18.005 L0.274,18.005 C0.275,18.052 0.277,18.099 0.281,18.146 L0.281,18.146 C0.287,18.24 0.297,18.333 0.313,18.421 L0.313,18.421 C0.321,18.469 0.331,18.516 0.342,18.562 L0.342,18.562 C0.362,18.646 0.385,18.726 0.412,18.805 L0.412,18.805 C0.427,18.846 0.442,18.888 0.459,18.929 L0.459,18.929 C0.492,19.009 0.529,19.085 0.572,19.16 L0.572,19.16 C0.588,19.19 0.604,19.22 0.622,19.25 L0.622,19.25 C0.675,19.337 0.733,19.418 0.796,19.497 L0.796,19.497 C0.804,19.508 0.813,19.52 0.822,19.531 L0.822,19.531 C1.292,20.1 2.003,20.457 2.712,20.68 L2.712,20.68 C2.587,20.647 2.468,20.602 2.344,20.566 L2.344,20.566 C2.45,20.607 2.556,20.646 2.661,20.68 L2.661,20.68 C2.716,20.693 2.772,20.701 2.827,20.712 L2.827,20.712 C3.077,20.767 3.33,20.809 3.582,20.853 L3.582,20.853 C3.733,20.88 3.883,20.915 4.035,20.938 L4.035,20.938 C4.461,20.998 4.891,21.04 5.322,21.06 L5.322,21.06 L17.252,21.06 L17.261,21.05 C18.658,21.052 20.047,20.847 21.381,20.44 L21.381,20.44 C21.356,20.451 21.329,20.458 21.303,20.468 L21.303,20.468 C21.326,20.462 21.349,20.457 21.371,20.45 L21.371,20.45 C22.282,20.039 23.058,19.35 23.118,18.198 L23.118,18.198 C23.149,17.621 23,16.929 22.602,16.098 L22.602,16.098 C22.469,15.821 22.307,15.529 22.116,15.22 L22.116,15.22 C21.989,15.014 21.847,14.8 21.692,14.58 L21.692,14.58 L11.512,0.19 L1.661,14.49 Z" id="path-11"></path>
        <linearGradient x1="50.0000758%" y1="10.0783795%" x2="50.0000758%" y2="119.581019%" id="linearGradient-13">
            <stop stop-color="#F79921" offset="0%"></stop>
            <stop stop-color="#FFE175" offset="100%"></stop>
        </linearGradient>
        <path d="M1.602,1.098 C1.469,0.821 1.307,0.529 1.116,0.22 L1.116,0.22 C1.307,0.529 1.469,0.821 1.602,1.098" id="path-14"></path>
        <path d="M1.602,1.098 C1.469,0.821 1.307,0.529 1.116,0.22 L1.116,0.22 C1.307,0.529 1.469,0.821 1.602,1.098" id="path-16"></path>
        <linearGradient x1="49.98181%" y1="-1286.56422%" x2="49.98181%" y2="998.75587%" id="linearGradient-18">
            <stop stop-color="#F79921" offset="0%"></stop>
            <stop stop-color="#FFE175" offset="100%"></stop>
        </linearGradient>
        <path d="M0.822,0.531 C0.813,0.52 0.804,0.508 0.796,0.497 L0.796,0.497 C0.804,0.508 0.813,0.52 0.822,0.531" id="path-19"></path>
        <path d="M0.822,0.531 C0.813,0.52 0.804,0.508 0.796,0.497 L0.796,0.497 C0.804,0.508 0.813,0.52 0.822,0.531" id="path-21"></path>
        <linearGradient x1="49.92504%" y1="-1672.06422%" x2="49.92504%" y2="613.25587%" id="linearGradient-23">
            <stop stop-color="#F79921" offset="0%"></stop>
            <stop stop-color="#FFE175" offset="100%"></stop>
        </linearGradient>
        <path d="M1.281,1.146 C1.277,1.099 1.275,1.052 1.274,1.005 L1.274,1.005 C1.275,1.052 1.277,1.099 1.281,1.146" id="path-24"></path>
        <path d="M1.281,1.146 C1.277,1.099 1.275,1.052 1.274,1.005 L1.274,1.005 C1.275,1.052 1.277,1.099 1.281,1.146" id="path-26"></path>
        <linearGradient x1="49.96835%" y1="-1528.21422%" x2="49.96835%" y2="757.10587%" id="linearGradient-28">
            <stop stop-color="#F79921" offset="0%"></stop>
            <stop stop-color="#FFE175" offset="100%"></stop>
        </linearGradient>
        <path d="M0.622,1.25 C0.604,1.22 0.588,1.19 0.572,1.16 L0.572,1.16 C0.588,1.19 0.604,1.22 0.622,1.25" id="path-29"></path>
        <path d="M0.622,1.25 C0.604,1.22 0.588,1.19 0.572,1.16 L0.572,1.16 C0.588,1.19 0.604,1.22 0.622,1.25" id="path-31"></path>
        <linearGradient x1="49.94584%" y1="-1641.16422%" x2="49.94584%" y2="644.15587%" id="linearGradient-33">
            <stop stop-color="#F79921" offset="0%"></stop>
            <stop stop-color="#FFE175" offset="100%"></stop>
        </linearGradient>
        <path d="M1.374,1.133 C1.381,1.105 1.385,1.078 1.393,1.05 L1.393,1.05 C1.385,1.078 1.381,1.105 1.374,1.133" id="path-34"></path>
        <path d="M1.374,1.133 C1.381,1.105 1.385,1.078 1.393,1.05 L1.393,1.05 C1.385,1.078 1.381,1.105 1.374,1.133" id="path-36"></path>
        <linearGradient x1="50.02509%" y1="-1429.81422%" x2="50.02509%" y2="855.50587%" id="linearGradient-38">
            <stop stop-color="#F79921" offset="0%"></stop>
            <stop stop-color="#FFE175" offset="100%"></stop>
        </linearGradient>
        <path d="M1.342,1.562 C1.331,1.516 1.321,1.469 1.313,1.421 L1.313,1.421 C1.321,1.47 1.331,1.516 1.342,1.562" id="path-39"></path>
        <path d="M1.342,1.562 C1.331,1.516 1.321,1.469 1.313,1.421 L1.313,1.421 C1.321,1.47 1.331,1.516 1.342,1.562" id="path-41"></path>
        <linearGradient x1="49.99155%" y1="-1569.81422%" x2="49.99155%" y2="715.50587%" id="linearGradient-43">
            <stop stop-color="#F79921" offset="0%"></stop>
            <stop stop-color="#FFE175" offset="100%"></stop>
        </linearGradient>
        <path d="M0.556,0.529 C0.56,0.52 0.562,0.51 0.566,0.5 L0.566,0.5 C0.562,0.51 0.56,0.52 0.556,0.529" id="path-44"></path>
        <path d="M0.556,0.529 C0.56,0.52 0.562,0.51 0.566,0.5 L0.566,0.5 C0.562,0.51 0.56,0.52 0.556,0.529" id="path-46"></path>
        <linearGradient x1="50.01801%" y1="-1372.11422%" x2="50.01801%" y2="913.20587%" id="linearGradient-48">
            <stop stop-color="#F79921" offset="0%"></stop>
            <stop stop-color="#FFE175" offset="100%"></stop>
        </linearGradient>
        <path d="M1.287,0.671 C1.291,0.631 1.293,0.59 1.298,0.55 L1.298,0.55 C1.292,0.591 1.291,0.631 1.287,0.671" id="path-49"></path>
        <path d="M1.287,0.671 C1.291,0.631 1.293,0.59 1.298,0.55 L1.298,0.55 C1.292,0.591 1.291,0.631 1.287,0.671" id="path-51"></path>
        <linearGradient x1="50.01865%" y1="-1481.71422%" x2="50.01865%" y2="803.60587%" id="linearGradient-53">
            <stop stop-color="#F79921" offset="0%"></stop>
            <stop stop-color="#FFE175" offset="100%"></stop>
        </linearGradient>
        <path d="M1.459,0.929 C1.442,0.888 1.427,0.846 1.412,0.805 L1.412,0.805 C1.427,0.846 1.442,0.888 1.459,0.929" id="path-54"></path>
        <path d="M1.459,0.929 C1.442,0.888 1.427,0.846 1.412,0.805 L1.412,0.805 C1.427,0.846 1.442,0.888 1.459,0.929" id="path-56"></path>
        <linearGradient x1="50.01308%" y1="-1607.36422%" x2="50.01308%" y2="677.95587%" id="linearGradient-58">
            <stop stop-color="#F79921" offset="0%"></stop>
            <stop stop-color="#FFE175" offset="100%"></stop>
        </linearGradient>
        <path d="M1.226,1.426 C1.165,1.416 1.107,1.407 1.047,1.399 L1.047,1.399 C1.107,1.407 1.165,1.418 1.226,1.426" id="path-59"></path>
        <linearGradient x1="49.98144%" y1="1939.50523%" x2="49.98144%" y2="-345.26097%" id="linearGradient-61">
            <stop stop-color="#F79921" offset="0%"></stop>
            <stop stop-color="#FFE175" offset="100%"></stop>
        </linearGradient>
        <path d="M1.035,0.938 C0.883,0.915 0.733,0.88 0.582,0.853 L0.582,0.853 C0.733,0.88 0.883,0.916 1.035,0.938" id="path-62"></path>
        <linearGradient x1="49.97809%" y1="-1810.21422%" x2="49.97809%" y2="475.10587%" id="linearGradient-64">
            <stop stop-color="#F79921" offset="0%"></stop>
            <stop stop-color="#FFE175" offset="100%"></stop>
        </linearGradient>
        <polygon id="path-65" points="0.938940897 0.354268759 42.166 0.354268759 42.166 41.4943304 0.938940897 41.4943304"></polygon>
        <linearGradient x1="58.7397838%" y1="71.3370758%" x2="110.732475%" y2="-21.2721824%" id="linearGradient-67">
            <stop stop-color="#FFFFFF" stop-opacity="0" offset="0%"></stop>
            <stop stop-color="#FDD43D" offset="100%"></stop>
        </linearGradient>
        <path d="M20.3910263,49.49 L1.39102626,77.06 C-3.13797374,83.63 4.84202626,83.64 4.84202626,83.64 L4.84202626,83.64 L16.9820263,83.64 C24.9810263,83.64 29.4810263,77.08 29.4810263,77.08 L29.4810263,77.08 L38.6320263,63.809 L32.9720263,55.782 L28.4520263,49.41 C27.3600263,47.862 26.9760263,46.685 27.0250263,45.786 L27.0250263,45.786 C27.0730263,44.612 27.8510263,43.91 28.7720263,43.49 L28.7720263,43.49 C25.4270263,44.578 22.4990263,46.674 20.3910263,49.49" id="path-68"></path>
    </defs>
    <g id="logo-winner-/-color-/-vaimo" stroke="none" stroke-width="1" fill="none" fill-rule="evenodd">
        <g id="Group" transform="translate(44.999974, 2.000000)">
            <g id="Group-128" transform="translate(3.000026, 0.000000)">
                <g id="Group-3" transform="translate(0.000000, 6.640000)">
                    <g id="Fill-1">
                        <use fill="#FAB039" xlink:href="#path-2"></use>
                        <use fill="url(#linearGradient-1)" xlink:href="#path-2"></use>
                    </g>
                </g>
                <g id="Group-6" transform="translate(35.000000, 42.640000)">
                    <g id="Fill-4">
                        <use fill="#FAB039" xlink:href="#path-4"></use>
                        <use fill="url(#linearGradient-3)" xlink:href="#path-4"></use>
                    </g>
                </g>
                <g id="Group-9" transform="translate(24.000000, 42.640000)">
                    <mask id="mask-6" fill="white">
                        <use xlink:href="#path-5"></use>
                    </mask>
                    <g id="Clip-8"></g>
                    <path d="M17.062,0.28 L5.901,0.28 L5.891,0.28 C4.495,0.285 3.106,0.496 1.772,0.91 L1.772,0.91 C1.841,0.882 1.914,0.86 1.985,0.834 L1.985,0.834 C1.914,0.855 1.842,0.869 1.772,0.891 L1.772,0.891 C0.861,1.305 0.087,1.996 0.025,3.146 L0.025,3.146 C-0.011,4.04 0.376,5.205 1.452,6.73 L1.452,6.73 L5.972,13.142 L11.632,21.12 L21.482,6.82 C22.176,5.814 22.577,4.96 22.757,4.238 L22.757,4.238 C23.291,2.087 21.845,1.117 20.422,0.63 L20.422,0.63 C20.205,0.579 19.984,0.549 19.766,0.51 L19.766,0.51 C19.984,0.559 20.206,0.595 20.422,0.66 L20.422,0.66 C20.027,0.562 19.626,0.488 19.226,0.426 L19.226,0.426 C19.165,0.418 19.107,0.407 19.047,0.399 L19.047,0.399 C18.635,0.342 18.219,0.299 17.801,0.28 L17.801,0.28 L17.062,0.28 Z" id="Fill-7" fill="url(#linearGradient-7)" mask="url(#mask-6)"></path>
                </g>
                <g id="Group-15" transform="translate(35.000000, 0.640000)">
                    <mask id="mask-10" fill="white">
                        <use xlink:href="#path-9"></use>
                    </mask>
                    <g id="Clip-14">
                        <use fill="#FAB039" xlink:href="#path-9"></use>
                        <use fill="url(#linearGradient-8)" xlink:href="#path-9"></use>
                    </g>
                </g>
                <g id="Group-18" transform="translate(24.000000, 20.640000)">
                    <mask id="mask-12" fill="white">
                        <use xlink:href="#path-11"></use>
                    </mask>
                    <g id="Clip-17"></g>
                    <path d="M1.661,14.49 C1.142,15.243 0.788,15.909 0.566,16.5 L0.566,16.5 C0.562,16.51 0.56,16.52 0.556,16.529 L0.556,16.529 C0.49,16.709 0.436,16.883 0.393,17.05 L0.393,17.05 C0.385,17.078 0.381,17.105 0.374,17.133 L0.374,17.133 C0.341,17.277 0.315,17.416 0.298,17.55 L0.298,17.55 C0.293,17.59 0.291,17.631 0.287,17.671 L0.287,17.671 C0.277,17.786 0.272,17.897 0.274,18.005 L0.274,18.005 C0.275,18.052 0.277,18.099 0.281,18.146 L0.281,18.146 C0.287,18.24 0.297,18.333 0.313,18.421 L0.313,18.421 C0.321,18.469 0.331,18.516 0.342,18.562 L0.342,18.562 C0.362,18.646 0.385,18.726 0.412,18.805 L0.412,18.805 C0.427,18.846 0.442,18.888 0.459,18.929 L0.459,18.929 C0.492,19.009 0.529,19.085 0.572,19.16 L0.572,19.16 C0.588,19.19 0.604,19.22 0.622,19.25 L0.622,19.25 C0.675,19.337 0.733,19.418 0.796,19.497 L0.796,19.497 C0.804,19.508 0.813,19.52 0.822,19.531 L0.822,19.531 C1.292,20.1 2.003,20.457 2.712,20.68 L2.712,20.68 C2.587,20.647 2.468,20.602 2.344,20.566 L2.344,20.566 C2.45,20.607 2.556,20.646 2.661,20.68 L2.661,20.68 C2.716,20.693 2.772,20.701 2.827,20.712 L2.827,20.712 C3.077,20.767 3.33,20.809 3.582,20.853 L3.582,20.853 C3.733,20.88 3.883,20.915 4.035,20.938 L4.035,20.938 C4.461,20.998 4.891,21.04 5.322,21.06 L5.322,21.06 L17.252,21.06 L17.261,21.05 C18.658,21.052 20.047,20.847 21.381,20.44 L21.381,20.44 C21.356,20.451 21.329,20.458 21.303,20.468 L21.303,20.468 C21.326,20.462 21.349,20.457 21.371,20.45 L21.371,20.45 C22.282,20.039 23.058,19.35 23.118,18.198 L23.118,18.198 C23.149,17.621 23,16.929 22.602,16.098 L22.602,16.098 C22.469,15.821 22.307,15.529 22.116,15.22 L22.116,15.22 C21.989,15.014 21.847,14.8 21.692,14.58 L21.692,14.58 L11.512,0.19 L1.661,14.49 Z" id="Fill-16" fill="url(#linearGradient-13)" mask="url(#mask-12)"></path>
                </g>
                <g id="Group-21" transform="translate(45.000000, 35.640000)">
                    <mask id="mask-15" fill="white">
                        <use xlink:href="#path-14"></use>
                    </mask>
                    <g id="Clip-20"></g>
                    <path d="M1.602,1.098 C1.469,0.821 1.307,0.529 1.116,0.22 L1.116,0.22 C1.307,0.529 1.469,0.821 1.602,1.098" id="Fill-19" mask="url(#mask-15)"></path>
                </g>
                <g id="Group-24" transform="translate(45.000000, 35.640000)">
                    <mask id="mask-17" fill="white">
                        <use xlink:href="#path-16"></use>
                    </mask>
                    <g id="Clip-23"></g>
                    <path d="M1.602,1.098 C1.469,0.821 1.307,0.529 1.116,0.22 L1.116,0.22 C1.307,0.529 1.469,0.821 1.602,1.098" id="Fill-22" fill="url(#linearGradient-18)" mask="url(#mask-17)"></path>
                </g>
                <g id="Group-27" transform="translate(24.000000, 39.640000)">
                    <mask id="mask-20" fill="white">
                        <use xlink:href="#path-19"></use>
                    </mask>
                    <g id="Clip-26"></g>
                    <path d="M0.822,0.531 C0.813,0.52 0.804,0.508 0.796,0.497 L0.796,0.497 C0.804,0.508 0.813,0.52 0.822,0.531" id="Fill-25" mask="url(#mask-20)"></path>
                </g>
                <g id="Group-30" transform="translate(24.000000, 39.640000)">
                    <mask id="mask-22" fill="white">
                        <use xlink:href="#path-21"></use>
                    </mask>
                    <g id="Clip-29"></g>
                    <path d="M0.822,0.531 C0.813,0.52 0.804,0.508 0.796,0.497 L0.796,0.497 C0.804,0.508 0.813,0.52 0.822,0.531" id="Fill-28" fill="url(#linearGradient-23)" mask="url(#mask-22)"></path>
                </g>
                <g id="Group-33" transform="translate(23.000000, 37.640000)">
                    <mask id="mask-25" fill="white">
                        <use xlink:href="#path-24"></use>
                    </mask>
                    <g id="Clip-32"></g>
                    <path d="M1.281,1.146 C1.277,1.099 1.275,1.052 1.274,1.005 L1.274,1.005 C1.275,1.052 1.277,1.099 1.281,1.146" id="Fill-31" mask="url(#mask-25)"></path>
                </g>
                <g id="Group-36" transform="translate(23.000000, 37.640000)">
                    <mask id="mask-27" fill="white">
                        <use xlink:href="#path-26"></use>
                    </mask>
                    <g id="Clip-35"></g>
                    <path d="M1.281,1.146 C1.277,1.099 1.275,1.052 1.274,1.005 L1.274,1.005 C1.275,1.052 1.277,1.099 1.281,1.146" id="Fill-34" fill="url(#linearGradient-28)" mask="url(#mask-27)"></path>
                </g>
                <g id="Group-39" transform="translate(24.000000, 38.640000)">
                    <mask id="mask-30" fill="white">
                        <use xlink:href="#path-29"></use>
                    </mask>
                    <g id="Clip-38"></g>
                    <path d="M0.622,1.25 C0.604,1.22 0.588,1.19 0.572,1.16 L0.572,1.16 C0.588,1.19 0.604,1.22 0.622,1.25" id="Fill-37" mask="url(#mask-30)"></path>
                </g>
                <g id="Group-42" transform="translate(24.000000, 38.640000)">
                    <mask id="mask-32" fill="white">
                        <use xlink:href="#path-31"></use>
                    </mask>
                    <g id="Clip-41"></g>
                    <path d="M0.622,1.25 C0.604,1.22 0.588,1.19 0.572,1.16 L0.572,1.16 C0.588,1.19 0.604,1.22 0.622,1.25" id="Fill-40" fill="url(#linearGradient-33)" mask="url(#mask-32)"></path>
                </g>
                <g id="Group-45" transform="translate(23.000000, 36.640000)">
                    <mask id="mask-35" fill="white">
                        <use xlink:href="#path-34"></use>
                    </mask>
                    <g id="Clip-44"></g>
                    <path d="M1.374,1.133 C1.381,1.105 1.385,1.078 1.393,1.05 L1.393,1.05 C1.385,1.078 1.381,1.105 1.374,1.133" id="Fill-43" mask="url(#mask-35)"></path>
                </g>
                <g id="Group-48" transform="translate(23.000000, 36.640000)">
                    <mask id="mask-37" fill="white">
                        <use xlink:href="#path-36"></use>
                    </mask>
                    <g id="Clip-47"></g>
                    <path d="M1.374,1.133 C1.381,1.105 1.385,1.078 1.393,1.05 L1.393,1.05 C1.385,1.078 1.381,1.105 1.374,1.133" id="Fill-46" fill="url(#linearGradient-38)" mask="url(#mask-37)"></path>
                </g>
                <g id="Group-51" transform="translate(23.000000, 37.640000)">
                    <mask id="mask-40" fill="white">
                        <use xlink:href="#path-39"></use>
                    </mask>
                    <g id="Clip-50"></g>
                    <path d="M1.342,1.562 C1.331,1.516 1.321,1.469 1.313,1.421 L1.313,1.421 C1.321,1.47 1.331,1.516 1.342,1.562" id="Fill-49" mask="url(#mask-40)"></path>
                </g>
                <g id="Group-54" transform="translate(23.000000, 37.640000)">
                    <mask id="mask-42" fill="white">
                        <use xlink:href="#path-41"></use>
                    </mask>
                    <g id="Clip-53"></g>
                    <path d="M1.342,1.562 C1.331,1.516 1.321,1.469 1.313,1.421 L1.313,1.421 C1.321,1.47 1.331,1.516 1.342,1.562" id="Fill-52" fill="url(#linearGradient-43)" mask="url(#mask-42)"></path>
                </g>
                <g id="Group-57" transform="translate(24.000000, 36.640000)">
                    <mask id="mask-45" fill="white">
                        <use xlink:href="#path-44"></use>
                    </mask>
                    <g id="Clip-56"></g>
                    <path d="M0.556,0.529 C0.56,0.52 0.562,0.51 0.566,0.5 L0.566,0.5 C0.562,0.51 0.56,0.52 0.556,0.529" id="Fill-55" mask="url(#mask-45)"></path>
                </g>
                <g id="Group-60" transform="translate(24.000000, 36.640000)">
                    <mask id="mask-47" fill="white">
                        <use xlink:href="#path-46"></use>
                    </mask>
                    <g id="Clip-59"></g>
                    <path d="M0.556,0.529 C0.56,0.52 0.562,0.51 0.566,0.5 L0.566,0.5 C0.562,0.51 0.56,0.52 0.556,0.529" id="Fill-58" fill="url(#linearGradient-48)" mask="url(#mask-47)"></path>
                </g>
                <g id="Group-63" transform="translate(23.000000, 37.640000)">
                    <mask id="mask-50" fill="white">
                        <use xlink:href="#path-49"></use>
                    </mask>
                    <g id="Clip-62"></g>
                    <path d="M1.287,0.671 C1.291,0.631 1.293,0.59 1.298,0.55 L1.298,0.55 C1.292,0.591 1.291,0.631 1.287,0.671" id="Fill-61" mask="url(#mask-50)"></path>
                </g>
                <g id="Group-66" transform="translate(23.000000, 37.640000)">
                    <mask id="mask-52" fill="white">
                        <use xlink:href="#path-51"></use>
                    </mask>
                    <g id="Clip-65"></g>
                    <path d="M1.287,0.671 C1.291,0.631 1.293,0.59 1.298,0.55 L1.298,0.55 C1.292,0.591 1.291,0.631 1.287,0.671" id="Fill-64" fill="url(#linearGradient-53)" mask="url(#mask-52)"></path>
                </g>
                <g id="Group-69" transform="translate(23.000000, 38.640000)">
                    <mask id="mask-55" fill="white">
                        <use xlink:href="#path-54"></use>
                    </mask>
                    <g id="Clip-68"></g>
                    <path d="M1.459,0.929 C1.442,0.888 1.427,0.846 1.412,0.805 L1.412,0.805 C1.427,0.846 1.442,0.888 1.459,0.929" id="Fill-67" mask="url(#mask-55)"></path>
                </g>
                <g id="Group-72" transform="translate(23.000000, 38.640000)">
                    <mask id="mask-57" fill="white">
                        <use xlink:href="#path-56"></use>
                    </mask>
                    <g id="Clip-71"></g>
                    <path d="M1.459,0.929 C1.442,0.888 1.427,0.846 1.412,0.805 L1.412,0.805 C1.427,0.846 1.442,0.888 1.459,0.929" id="Fill-70" fill="url(#linearGradient-58)" mask="url(#mask-57)"></path>
                </g>
                <g id="Group-75" transform="translate(42.000000, 41.640000)">
                    <mask id="mask-60" fill="white">
                        <use xlink:href="#path-59"></use>
                    </mask>
                    <g id="Clip-74"></g>
                    <path d="M1.226,1.426 C1.165,1.416 1.107,1.407 1.047,1.399 L1.047,1.399 C1.107,1.407 1.165,1.418 1.226,1.426" id="Fill-73" fill="url(#linearGradient-61)" mask="url(#mask-60)"></path>
                </g>
                <g id="Group-78" transform="translate(27.000000, 40.640000)">
                    <mask id="mask-63" fill="white">
                        <use xlink:href="#path-62"></use>
                    </mask>
                    <g id="Clip-77"></g>
                    <path d="M1.035,0.938 C0.883,0.915 0.733,0.88 0.582,0.853 L0.582,0.853 C0.733,0.88 0.883,0.916 1.035,0.938" id="Fill-76" fill="url(#linearGradient-64)" mask="url(#mask-63)"></path>
                </g>
                <g id="Group-127" transform="translate(76.000000, 22.640000)">
                    <g id="Group-81" transform="translate(133.000000, 0.000000)">
                        <mask id="mask-66" fill="white">
                            <use xlink:href="#path-65"></use>
                        </mask>
                        <g id="Clip-80"></g>
                        <path d="M4.9514,21.1101 L4.9514,20.9501 C4.9504,20.7301 4.9624,20.5121 4.9704,20.2941 C4.9734,20.2031 4.9724,20.1111 4.9774,20.0211 C5.1104,17.3941 5.8464,14.8291 7.1414,12.5301 L7.1414,12.4901 C10.0964,7.3671 15.5384,4.1881 21.4514,4.13006564 C24.3954,4.1241 27.2894,4.9041 29.8314,6.3901 C32.3734,7.8051 34.4864,9.8771 35.9514,12.3901 C37.4104,14.9581 38.1594,17.8671 38.1214,20.8201 C38.1224,20.8411 38.1204,20.8621 38.1204,20.8831 C38.1204,20.9061 38.1224,20.9271 38.1214,20.9501 C38.1554,23.9301 37.4064,26.8681 35.9514,29.4701 C34.5194,31.9881 32.4234,34.0631 29.8914,35.4701 C27.3224,36.9381 24.4104,37.7001 21.4514,37.6801 L21.4514,37.7701 C21.3974,37.7701 21.3454,37.7701 21.2914,37.7691 C12.1954,37.6981 4.8804,30.2661 4.9514,21.1701 C4.9514,21.1581 4.9524,21.1461 4.9524,21.1341 C4.9524,21.1271 4.9514,21.1191 4.9514,21.1101 M21.6014,41.4901 C32.8894,41.5561 42.0954,32.4601 42.1614,21.1711 C42.1624,21.0841 42.1624,20.9971 42.1614,20.9101 C42.2804,15.4181 40.1064,10.1241 36.1614,6.3001 C32.2354,2.3741 26.8724,0.2271 21.3214,0.3601 C14.0104,0.3371 7.2584,4.2691 3.6714,10.6401 C1.8584,13.8261 0.9164,17.4341 0.9414,21.1001 C0.8554,26.5341 3.0284,31.7591 6.9414,35.5301 C10.8014,39.4481 16.1024,41.6031 21.6014,41.4901" id="Fill-79" fill="#000000" mask="url(#mask-66)"></path>
                    </g>
                    <path d="M137.97,20.2937 C137.973,20.2027 137.973,20.1117 137.978,20.0217 C137.973,20.1117 137.974,20.2027 137.97,20.2937" id="Fill-82" fill="#000000"></path>
                    <path d="M154.2913,37.7693 C154.3453,37.7703 154.3973,37.7703 154.4513,37.7703 L154.4513,37.6803 C157.4103,37.7003 160.3223,36.9383 162.8923,35.4703 C165.4233,34.0633 167.5203,31.9883 168.9513,29.4703 C170.4063,26.8683 171.1553,23.9303 171.1213,20.9503 C171.122408,20.9273 171.1203,20.9063 171.1203,20.8833 C171.1433,23.8423 170.3963,26.7563 168.9513,29.3393 C167.5203,31.8583 165.4233,33.9333 162.8923,35.3393 C160.3223,36.8083 157.4103,37.5703 154.4513,37.5493 C145.3633,37.5673 137.9813,30.2193 137.9523,21.1343 C137.9523,21.1463 137.9513,21.1583 137.9513,21.1693 C137.8803,30.2663 145.1953,37.6983 154.2913,37.7693" id="Fill-84" fill="#000000"></path>
                    <polygon id="Fill-86" fill="#000000" points="30.8914 1.3499 17.7014 31.5999 4.7214 1.3499 0.4614 1.3499 17.2614 40.4999 18.1114 40.4999 35.1414 1.3499"></polygon>
                    <polygon id="Fill-88" fill="#000000" points="72.652 40.51 76.562 40.51 76.562 1.349 72.652 1.349"></polygon>
                    <path d="M41.6814,23.8396 L48.3914,9.6706 L55.0714,23.8396 L41.6814,23.8396 Z M47.9214,1.3496 L29.4214,40.4996 L33.7914,40.4996 L39.8914,27.6196 L56.7624,27.6196 L62.9214,40.4996 L67.1414,40.4996 L48.8814,1.3496 L47.9214,1.3496 Z" id="Fill-90" fill="#000000"></path>
                    <polygon id="Fill-91" fill="#000000" points="105.3919 40.4998 106.3919 40.4998 120.2419 12.4998 124.1019 40.4998 127.9419 40.4998 122.3119 1.3498 121.6819 1.3498 105.9119 33.4798 90.0009 1.3498 89.3619 1.3498 83.7509 40.4998 87.5319 40.4998 91.3809 12.2898"></polygon>
                    <path d="M61.1819,49.28 L61.1819,46.35 L62.6919,46.35 C62.9099,46.339 63.1269,46.345 63.3429,46.37 C63.5589,46.395 63.7729,46.438 63.9819,46.5 C64.1109,46.555 64.2289,46.63 64.3319,46.717 C64.5399,46.894 64.6919,47.129 64.7669,47.39 C64.8049,47.521 64.8239,47.659 64.8219,47.8 C64.8279,48.087 64.7479,48.37 64.5909,48.61 C64.4419,48.849 64.2169,49.033 63.9519,49.13 C63.5359,49.262 63.0979,49.32 62.6609,49.3 L61.1819,49.28 Z M64.4919,49.96 C64.9059,49.789 65.2549,49.491 65.4919,49.11 C65.7279,48.715 65.8489,48.26 65.8409,47.8 C65.8599,47.247 65.6739,46.707 65.3219,46.28 C64.9889,45.873 64.5269,45.591 64.0119,45.48 C63.3499,45.379 62.6809,45.339 62.0119,45.36 L60.1919,45.36 L60.1919,54.36 L61.1919,54.36 L61.1919,50.28 L61.6209,50.28 L64.8019,54.42 L66.0219,54.42 L62.8219,50.28 C63.3939,50.288 63.9619,50.179 64.4919,49.96 L64.4919,49.96 Z" id="Fill-92" fill="#000000"></path>
                    <path d="M64.8216,47.7996 C64.8286,48.0866 64.7486,48.3696 64.5916,48.6106 C64.7486,48.3696 64.8286,48.0866 64.8216,47.7996" id="Fill-93" fill="#000000"></path>
                    <path d="M64.3323,46.7175 C64.5403,46.8945 64.6913,47.1285 64.7673,47.3905 C64.6913,47.1285 64.5403,46.8945 64.3323,46.7175" id="Fill-94" fill="#000000"></path>
                    <path d="M64.3323,46.7175 C64.2283,46.6295 64.1103,46.5555 63.9813,46.4995 C63.7723,46.4385 63.5593,46.3955 63.3433,46.3695 C63.5593,46.3955 63.7723,46.4385 63.9813,46.4995 C64.1103,46.5555 64.2283,46.6295 64.3323,46.7175" id="Fill-95" fill="#000000"></path>
                    <path d="M56.762,51.7996 C56.443,52.3666 55.976,52.8366 55.411,53.1596 C54.838,53.4946 54.185,53.6676 53.522,53.6596 C53.516,53.6596 53.511,53.6586 53.506,53.6586 C53.497,53.6586 53.49,53.6596 53.482,53.6596 C52.5,53.6756 51.555,53.2846 50.871,52.5796 C50.16,51.8836 49.77,50.9246 49.791,49.9306 C49.782,49.2546 49.95,48.5886 50.282,47.9996 C50.499,47.6146 50.802,47.2976 51.139,47.0166 C51.291,46.8816 51.437,46.7376 51.612,46.6296 C52.167,46.2956 52.803,46.1196 53.451,46.1196 C53.456,46.1196 53.461,46.1206 53.467,46.1206 C53.472,46.1206 53.477,46.1196 53.482,46.1196 C53.59,46.1206 53.697,46.1336 53.804,46.1436 C53.852,46.1486 53.901,46.1476 53.949,46.1536 C54.597,46.2386 55.206,46.4906 55.722,46.8756 C56.141,47.1696 56.497,47.5476 56.762,47.9896 C57.086,48.5666 57.251,49.2186 57.241,49.8796 C57.251,50.5506 57.086,51.2126 56.762,51.7996 M53.442,45.1506 C52.622,45.1446 51.817,45.3626 51.112,45.7796 C50.396,46.1956 49.805,46.7966 49.402,47.5206 C48.991,48.2566 48.777,49.0866 48.7819144,49.9306 C48.781,52.5426 50.899,54.6606 53.511,54.6606 C54.763,54.6606 55.965,54.1646 56.852,53.2796 C58.677,51.4076 58.677,48.4216 56.852,46.5496 C55.955,45.6356 54.722,45.1296 53.442,45.1506" id="Fill-96" fill="#000000"></path>
                    <path d="M53.4671,46.1208 C53.4611,46.1208 53.4561,46.1198 53.4511,46.1198 C52.8031,46.1198 52.1671,46.2958 51.6121,46.6298 C51.4371,46.7378 51.2911,46.8818 51.1391,47.0168 C51.3011,46.8808 51.4561,46.7358 51.6421,46.6298 C52.1931,46.2988 52.8231,46.1238 53.4671,46.1208" id="Fill-97" fill="#000000"></path>
                    <path d="M55.722,46.8757 C56.119,47.1727 56.462,47.5487 56.722,47.9897 C57.046,48.5657 57.211,49.2187 57.201,49.8797 C57.211,50.5507 57.046,51.2127 56.722,51.7997 C56.403,52.3667 55.936,52.8367 55.371,53.1597 C54.806,53.4907 54.161,53.6617 53.506,53.6587 C53.511,53.6587 53.516,53.6597 53.522,53.6597 C54.185,53.6677 54.838,53.4947 55.411,53.1597 C55.976,52.8367 56.443,52.3667 56.762,51.7997 C57.086,51.2127 57.251,50.5507 57.242,49.8797 C57.251,49.2187 57.086,48.5657 56.762,47.9897 C56.497,47.5477 56.141,47.1697 55.722,46.8757" id="Fill-98" fill="#000000"></path>
                    <path d="M53.804,46.1433 C53.852,46.1483 53.901,46.1483 53.949,46.1543 C53.901,46.1473 53.852,46.1483 53.804,46.1433" id="Fill-99" fill="#000000"></path>
                    <path d="M41.3816,46.6902 C41.9716,46.3512 42.6416,46.1752 43.3216,46.1802 C43.9306,46.1742 44.5326,46.3072 45.0816,46.5702 C45.6226,46.8312 46.0926,47.2182 46.4516,47.7002 L47.2316,47.1002 C46.8026,46.5002 46.2326,46.0152 45.5716,45.6902 C44.8666,45.3512 44.0936,45.1802 43.3116,45.1902 C42.0246,45.1552 40.7786,45.6462 39.8616,46.5492 C38.9516,47.4152 38.4496,48.6252 38.4816,49.8792 C38.4456,51.0532 38.8486,52.1982 39.6116,53.0892 C40.5516,54.1372 41.9156,54.7042 43.3216,54.6292 C44.0936,54.6392 44.8586,54.4782 45.5616,54.1602 C46.2126,53.8502 46.7836,53.3952 47.2316,52.8302 L46.4616,52.2402 L46.4616,52.2802 C45.7146,53.2142 44.5786,53.7522 43.3816,53.7402 C42.3466,53.7712 41.3436,53.3812 40.6016,52.6602 C39.8806,51.9542 39.4856,50.9792 39.5116,49.9702 C39.4986,49.2972 39.6686,48.6342 40.0016,48.0492 C40.3256,47.4772 40.8036,47.0062 41.3816,46.6902" id="Fill-100" fill="#000000"></path>
                    <polygon id="Fill-101" fill="#000000" points="140.3811 45.3796 140.3521 45.3796 136.8121 52.6406 133.2321 45.3796 133.0621 45.3796 133.0221 45.3796 131.7321 54.4006 132.6921 54.4006 132.6921 54.3596 133.5411 48.0796 136.6611 54.4006 136.9211 54.4006 136.9511 54.4006 140.0221 48.1296 140.8811 54.4006 141.8521 54.4006 140.5621 45.3796"></polygon>
                    <polygon id="Fill-102" fill="#000000" points="143.7415 54.4001 143.7915 54.4001 148.8815 54.4001 148.8815 53.4301 144.7315 53.4301 144.7315 50.0201 148.8815 50.0201 148.8815 49.0491 144.7315 49.0491 144.7315 46.3501 148.9215 46.3501 148.9215 45.3791 143.7415 45.3791"></polygon>
                    <polygon id="Fill-103" fill="#000000" points="168.6311 54.4001 168.6821 54.4001 173.7721 54.4001 173.7721 53.4301 169.6211 53.4301 169.6211 50.0201 173.7721 50.0201 173.7721 49.0491 169.6211 49.0491 169.6211 46.3501 173.8121 46.3501 173.8121 45.3791 168.6311 45.3791"></polygon>
                    <path d="M165.9114,52.28 C165.1654,53.216 164.0284,53.755 162.8314,53.74 C161.7994,53.773 160.7994,53.384 160.0614,52.66 C159.3364,51.956 158.9374,50.981 158.9614,49.97 C158.9534,49.298 159.1224,48.635 159.4514,48.05 C159.7824,47.478 160.2634,47.009 160.8414,46.69 C161.4324,46.35 162.1004,46.175 162.7814,46.18 C163.3904,46.175 163.9924,46.307 164.5414,46.57 C165.0814,46.833 165.5514,47.22 165.9114,47.7 L166.6914,47.1 C166.2634,46.5 165.6924,46.015 165.0314,45.69 C164.3264,45.351 163.5534,45.18 162.7714,45.19 C161.4914,45.149 160.2474,45.625 159.3214,46.51 C158.4144,47.377 157.9134,48.586 157.9414,49.84 C157.9144,51.013 158.3204,52.156 159.0814,53.05 C160.0154,54.112 161.3794,54.693 162.7914,54.63 C163.5634,54.639 164.3284,54.478 165.0314,54.16 C165.6824,53.85 166.2544,53.395 166.7014,52.83 L165.9214,52.24 L165.9114,52.28 Z" id="Fill-104" fill="#000000"></path>
                    <polygon id="Fill-105" fill="#000000" points="128.7913 45.3796 128.7623 45.3796 125.2223 52.6406 121.6423 45.3796 121.4723 45.3796 121.4213 45.3796 120.1423 54.4006 121.1023 54.4006 121.1023 54.3596 121.9513 48.0796 125.0713 54.4006 125.3213 54.4006 125.3523 54.4006 128.4323 48.1296 129.2913 54.4006 130.2623 54.4006 128.9723 45.3796"></polygon>
                    <polygon id="Fill-106" fill="#000000" points="89.3919 54.4001 89.4419 54.4001 90.3809 54.4001 90.3809 50.0201 93.9319 50.0201 93.9319 49.0491 90.3809 49.0491 90.3809 46.3501 93.9319 46.3501 93.9319 45.3791 89.3919 45.3791"></polygon>
                    <path d="M101.7913,46.6902 C102.3813,46.3502 103.0513,46.1742 103.7313,46.1802 C104.3403,46.1742 104.9423,46.3072 105.4913,46.5702 C106.0303,46.8332 106.5003,47.2202 106.8613,47.7002 L107.6313,47.1002 C107.2003,46.5032 106.6313,46.0182 105.9723,45.6902 C105.2673,45.3512 104.4933,45.1802 103.7113,45.1902 C102.4223,45.1572 101.1733,45.6472 100.2513,46.5492 C99.3453,47.4172 98.8443,48.6262 98.8713,49.8792 C98.8443,51.0532 99.2503,52.1962 100.0123,53.0892 C100.9443,54.1522 102.3093,54.7332 103.7223,54.6692 C104.4903,54.6792 105.2523,54.5192 105.9513,54.2002 C106.6073,53.8932 107.1833,53.4382 107.6313,52.8702 L106.8563,52.2842 C106.1093,53.2152 104.9763,53.7522 103.7813,53.7402 C102.7493,53.7732 101.7483,53.3832 101.0123,52.6602 C100.2863,51.9562 99.8883,50.9812 99.9113,49.9702 C99.9033,49.2972 100.0723,48.6352 100.4013,48.0492 C100.7323,47.4782 101.2133,47.0082 101.7913,46.6902" id="Fill-107" fill="#000000"></path>
                    <path d="M106.8518,52.28 L106.8568,52.284 C106.8588,52.283 106.8608,52.282 106.8618,52.28 L106.8518,52.28 Z" id="Fill-108" fill="#000000"></path>
                    <polygon id="Fill-109" fill="#000000" points="67.8919 54.4001 67.9419 54.4001 73.0319 54.4001 73.0319 53.4301 68.8709 53.4301 68.8709 50.0201 73.0319 50.0201 73.0319 49.0491 68.8709 49.0491 68.8709 46.3501 73.0719 46.3501 73.0719 45.3791 67.8919 45.3791"></polygon>
                    <path d="M86.1848,51.3464 C86.1238,51.5014 86.0528,51.6534 85.9718,51.7994 C85.6518,52.3694 85.1808,52.8404 84.6118,53.1594 C84.5398,53.2014 84.4638,53.2344 84.3898,53.2714 C84.2198,53.3564 84.0448,53.4284 83.8648,53.4854 C83.6548,53.5514 83.4428,53.6064 83.2238,53.6324 C83.0608,53.6534 82.8968,53.6614 82.7318,53.6594 C82.4858,53.6634 82.2438,53.6424 82.0058,53.5964 C81.2938,53.4604 80.6338,53.1084 80.1218,52.5794 C79.5878,52.0574 79.2358,51.3874 79.1008,50.6654 C79.0568,50.4254 79.0368,50.1784 79.0408,49.9304 C79.0388,49.7614 79.0478,49.5924 79.0678,49.4264 C79.1258,48.9264 79.2838,48.4414 79.5318,47.9994 C79.7788,47.5694 80.1038,47.1994 80.4848,46.9044 C80.6108,46.8064 80.7438,46.7164 80.8818,46.6354 C81.1578,46.4734 81.4548,46.3464 81.7658,46.2584 C82.0768,46.1714 82.4008,46.1234 82.7318,46.1194 C83.3418,46.1194 83.9388,46.2774 84.4748,46.5664 C84.7868,46.7314 85.0768,46.9364 85.3318,47.1824 C85.3638,47.2124 85.3918,47.2434 85.4218,47.2754 C85.6298,47.4904 85.8168,47.7264 85.9718,47.9904 C86.2958,48.5664 86.4608,49.2184 86.4518,49.8794 C86.4588,50.3834 86.3678,50.8814 86.1848,51.3464 M82.6918,45.1504 C81.0278,45.1594 79.4978,46.0654 78.6918,47.5204 C78.2758,48.2544 78.0618,49.0854 78.0718,49.9304 C78.0228,51.1844 78.5048,52.4014 79.4018,53.2804 C81.2568,55.1174 84.2468,55.1174 86.1018,53.2804 C86.9968,52.3934 87.4928,51.1804 87.4718,49.9194 C87.4988,48.6544 86.9988,47.4334 86.0908,46.5494 C85.2008,45.6334 83.9698,45.1274 82.6918,45.1504" id="Fill-110" fill="#000000"></path>
                    <path d="M86.4514,49.8796 C86.4594,50.3836 86.3674,50.8816 86.1844,51.3466 C86.3674,50.8816 86.4594,50.3836 86.4514,49.8796" id="Fill-111" fill="#000000"></path>
                    <path d="M82.7317,53.6599 C82.8967,53.6619 83.0607,53.6529 83.2237,53.6329 C83.0607,53.6529 82.8967,53.6619 82.7317,53.6599" id="Fill-112" fill="#000000"></path>
                    <path d="M85.4221,47.2751 C85.3921,47.2441 85.3631,47.2131 85.3321,47.1821 C85.3621,47.2131 85.3921,47.2451 85.4221,47.2751" id="Fill-113" fill="#000000"></path>
                    <path d="M83.8645,53.4851 C83.6545,53.5511 83.4425,53.6061 83.2235,53.6321 C83.4425,53.6061 83.6545,53.5511 83.8645,53.4851" id="Fill-114" fill="#000000"></path>
                    <path d="M84.4749,46.5662 C83.9389,46.2772 83.3419,46.1202 82.7319,46.1202 C82.4009,46.1242 82.0769,46.1712 81.7659,46.2582 C82.0769,46.1712 82.4009,46.1242 82.7319,46.1202 C83.3509,46.1252 83.9449,46.2862 84.4749,46.5662" id="Fill-115" fill="#000000"></path>
                    <path d="M84.6116,53.1599 C84.5406,53.2019 84.4646,53.2339 84.3896,53.2709 C84.4646,53.2339 84.5406,53.2019 84.6116,53.1599 C85.1806,52.8409 85.6516,52.3699 85.9716,51.7999 C85.6516,52.3699 85.1806,52.8409 84.6116,53.1599" id="Fill-116" fill="#000000"></path>
                    <path d="M117.1712,51.7996 C116.8522,52.3696 116.3812,52.8406 115.8122,53.1596 C115.2422,53.4946 114.5922,53.6676 113.9322,53.6596 C113.9262,53.6596 113.9212,53.6586 113.9152,53.6586 C113.9072,53.6586 113.9002,53.6596 113.8922,53.6596 C113.7712,53.6606 113.6532,53.6376 113.5342,53.6256 C113.4192,53.6136 113.3032,53.6136 113.1902,53.5926 C113.0622,53.5676 112.9412,53.5196 112.8162,53.4806 C112.7122,53.4476 112.6052,53.4266 112.5052,53.3846 C112.3732,53.3296 112.2532,53.2526 112.1292,53.1826 C112.0452,53.1346 111.9552,53.0986 111.8752,53.0446 C111.6772,52.9096 111.4912,52.7546 111.3212,52.5796 C110.5962,51.8906 110.1912,50.9306 110.2012,49.9306 C110.1922,49.2546 110.3602,48.5886 110.6922,47.9996 C111.3462,46.8466 112.5662,46.1296 113.8922,46.1196 C113.8992,46.1196 113.9052,46.1216 113.9132,46.1216 C113.9192,46.1216 113.9252,46.1196 113.9322,46.1196 C114.0762,46.1206 114.2192,46.1336 114.3602,46.1516 C114.3682,46.1526 114.3752,46.1526 114.3822,46.1536 C115.5382,46.2996 116.5722,46.9716 117.1712,47.9896 C117.4952,48.5666 117.6612,49.2186 117.6512,49.8796 C117.6612,50.5506 117.4962,51.2126 117.1712,51.7996 M113.8522,45.1506 C113.0282,45.1456 112.2202,45.3626 111.5122,45.7796 C110.7962,46.1936 110.2082,46.7956 109.8122,47.5206 C109.3932,48.2536 109.1752,49.0846 109.1822,49.9306 C109.1872,52.5306 111.3002,54.6356 113.9012,54.6296128 L113.9212,54.6296128 C116.5562,54.5886 118.6572,52.4196 118.6162,49.7856 C118.5972,48.5626 118.1082,47.3936 117.2512,46.5206 C116.3552,45.6146 115.1252,45.1196 113.8522,45.1506" id="Fill-117" fill="#000000"></path>
                    <path d="M112.8157,53.4802 C112.7117,53.4482 112.6047,53.4262 112.5047,53.3842 C112.6047,53.4262 112.7117,53.4482 112.8157,53.4802" id="Fill-118" fill="#000000"></path>
                    <path d="M115.7718,53.1599 C115.2098,53.4909 114.5678,53.6619 113.9158,53.6589 C113.9208,53.6589 113.9258,53.6599 113.9318,53.6599 C114.5918,53.6679 115.2428,53.4949 115.8118,53.1599 C116.3808,52.8409 116.8518,52.3699 117.1708,51.7999 C117.4968,51.2129 117.6618,50.5509 117.6518,49.8799 C117.6498,50.5549 117.4698,51.2169 117.1308,51.7999 C116.8118,52.3699 116.3408,52.8409 115.7718,53.1599" id="Fill-119" fill="#000000"></path>
                    <path d="M113.5345,53.6257 C113.4195,53.6137 113.3035,53.6137 113.1895,53.5927 C113.3035,53.6137 113.4195,53.6137 113.5345,53.6257" id="Fill-120" fill="#000000"></path>
                    <path d="M110.7317,47.9998 C111.3817,46.8528 112.5937,46.1378 113.9137,46.1218 C113.9057,46.1218 113.8987,46.1198 113.8917,46.1198 C112.5657,46.1298 111.3457,46.8468 110.6917,47.9998 C110.3607,48.5888 110.1917,49.2548 110.2017,49.9308 C110.1907,50.9308 110.5957,51.8908 111.3217,52.5798 C110.6107,51.8838 110.2197,50.9248 110.2417,49.9308 C110.2317,49.2548 110.4007,48.5888 110.7317,47.9998" id="Fill-121" fill="#000000"></path>
                    <path d="M114.3606,46.1511 C114.3686,46.1521 114.3756,46.1521 114.3816,46.1531 C114.3756,46.1521 114.3686,46.1521 114.3606,46.1511" id="Fill-122" fill="#000000"></path>
                    <path d="M112.1292,53.1824 C112.0452,53.1344 111.9552,53.0984 111.8752,53.0444 C111.9552,53.0984 112.0452,53.1344 112.1292,53.1824" id="Fill-123" fill="#000000"></path>
                    <path d="M151.6311,49.28 L151.6311,46.35 L151.6321,46.35 L153.1521,46.35 C153.3691,46.339 153.5871,46.345 153.8031,46.371 C154.0191,46.396 154.2331,46.439 154.4421,46.5 C154.6911,46.606 154.9031,46.784 155.0521,47.01 C155.2021,47.246 155.2821,47.52 155.2811,47.8 C155.2821,47.943 155.2631,48.085 155.2251,48.221 C155.1861,48.358 155.1281,48.489 155.0521,48.61 L155.0501,48.612 C154.8981,48.847 154.6741,49.03 154.4111,49.13 C153.9911,49.263 153.5521,49.321 153.1111,49.3 L151.6311,49.28 Z M154.9511,49.96 C155.3631,49.786 155.7131,49.489 155.9511,49.11 C156.1851,48.714 156.3031,48.259 156.2911,47.8 C156.3101,47.257 156.1321,46.724 155.7911,46.3 C155.4541,45.896 154.9941,45.615 154.4821,45.5 C153.8191,45.399 153.1511,45.359 152.4821,45.38 L150.6611,45.38 L150.6611,54.38 L151.6611,54.38 L151.6611,50.28 L152.0911,50.28 L155.2811,54.42 L156.5011,54.42 L153.3211,50.28 C153.8811,50.283 154.4351,50.174 154.9511,49.96 L154.9511,49.96 Z" id="Fill-124" fill="#000000"></path>
                    <path d="M155.0501,48.6121 L155.0521,48.6101 C155.1281,48.4891 155.1861,48.3581 155.2251,48.2211 C155.1861,48.3581 155.1281,48.4891 155.0521,48.6101 C155.0511,48.6111 155.0501,48.6111 155.0501,48.6121" id="Fill-125" fill="#000000"></path>
                    <path d="M155.052,47.0105 C155.202,47.2455 155.282,47.5205 155.281009,47.7995 C155.282,47.5205 155.202,47.2455 155.052,47.0105 C154.904,46.7835 154.691,46.6065 154.442,46.4995 C154.233,46.4395 154.019,46.3965 153.803,46.3705 C154.019,46.3965 154.233,46.4395 154.442,46.4995 C154.691,46.6065 154.904,46.7835 155.052,47.0105" id="Fill-126" fill="#000000"></path>
                </g>
            </g>
            <g id="Fill-10">
                <use fill="#FAB039" xlink:href="#path-68"></use>
                <use fill="url(#linearGradient-67)" xlink:href="#path-68"></use>
            </g>
        </g>
    </g>
</svg>